<?xml version="1.0" standalone="no"?>
<!DOCTYPE svg PUBLIC "-//W3C//DTD SVG 20010904//EN"
 "http://www.w3.org/TR/2001/REC-SVG-20010904/DTD/svg10.dtd">
<svg version="1.0" xmlns="http://www.w3.org/2000/svg"
 width="256.000000pt" height="256.000000pt" viewBox="0 0 256.000000 256.000000"
 preserveAspectRatio="xMidYMid meet">
<metadata>
Created by potrace 1.11, written by Peter Selinger 2001-2013
</metadata>
<g transform="translate(0.000000,256.000000) scale(0.100000,-0.100000)"
fill="#000000" stroke="none">
<path d="M905 2460 c-196 -40 -374 -133 -506 -264 -29 -29 -43 -35 -94 -39
-71 -7 -113 -26 -155 -71 -43 -45 -61 -83 -67 -142 -12 -115 65 -224 179 -255
l53 -14 2 -145 c2 -80 3 -194 2 -255 0 -60 0 -130 1 -155 1 -25 2 -52 2 -60
-2 -75 0 -621 3 -642 13 -105 84 -212 180 -273 98 -63 108 -64 610 -65 321 0
469 3 502 12 97 24 185 88 241 174 l33 52 72 0 c215 0 373 113 425 304 8 28
16 272 14 418 -1 8 -1 108 -1 221 -1 241 -10 286 -69 343 -62 60 -86 69 -202
73 -166 5 -167 5 -146 10 59 15 136 87 157 145 7 20 17 34 22 31 6 -4 7 -1 3
6 -5 7 -9 36 -11 65 -6 123 -96 211 -224 224 -51 4 -61 10 -109 56 -134 129
-317 221 -497 251 -109 18 -320 16 -420 -5z m1313 -969 c21 -31 22 -37 21
-168 0 -62 0 -120 0 -128 0 -8 0 -94 0 -190 0 -96 0 -181 0 -187 -1 -7 0 -36
1 -64 7 -163 -100 -274 -262 -274 l-59 0 1 178 c0 97 0 236 0 307 -1 72 -1
226 0 343 l0 213 141 -3 c136 -3 142 -4 157 -27z"/>
</g>
</svg>
